<?xml version="1.0" standalone="no"?>
<!DOCTYPE svg PUBLIC "-//W3C//DTD SVG 1.1//EN" "http://www.w3.org/Graphics/SVG/1.1/DTD/svg11.dtd" >
<svg xmlns="http://www.w3.org/2000/svg" xmlns:xlink="http://www.w3.org/1999/xlink" version="1.1">
<metadata>
Created by FontForge 20160405 at Thu Feb 28 04:22:28 2019
 By www-data
Copyright (c) 2018 by Vladimir Nikolic. All rights reserved.
</metadata>
<defs>
<font id="Kamikaze-Italic" horiz-adv-x="620" >
  <font-face 
    font-family="Kamikaze"
    font-weight="400"
    font-style="italic"
    font-stretch="normal"
    units-per-em="1000"
    panose-1="0 0 0 0 0 0 0 0 0 0"
    ascent="800"
    descent="-200"
    x-height="676"
    cap-height="676"
    bbox="3 -74 890 732"
    underline-thickness="50"
    underline-position="-150"
    slope="-12"
    unicode-range="U+000D-007A"
  />
<missing-glyph horiz-adv-x="469" 
 />
    <glyph glyph-name=".notdef" horiz-adv-x="469" 
 />
    <glyph glyph-name=".null" horiz-adv-x="0" 
 />
    <glyph glyph-name="nonmarkingreturn" unicode="&#xd;" horiz-adv-x="469" 
 />
    <glyph glyph-name="NULL" horiz-adv-x="0" 
 />
    <glyph glyph-name="NULL" horiz-adv-x="0" 
 />
    <glyph glyph-name="space" unicode=" " horiz-adv-x="469" 
 />
    <glyph glyph-name="exclam" unicode="!" horiz-adv-x="273" 
d="M379 676l-33 -188q-12 0 -22 -0.5t-18.5 -3.5t-14 -11t-8.5 -23l-36 -206h-188l46 263q6 35 25 65.5t46 53.5t60 36.5t68 13.5h75zM237 188l-33 -188h-188l33 188h188z" />
    <glyph glyph-name="quotedbl" unicode="&#x22;" horiz-adv-x="441" 
d="M324 677l-46 -262h-188l46 262h188v0zM546 677l-46 -262h-188l46 262h188v0z" />
    <glyph glyph-name="quotesingle" unicode="'" horiz-adv-x="226" 
d="M324 677l-46 -262h-188l46 262h188v0z" />
    <glyph glyph-name="comma" unicode="," horiz-adv-x="222" 
d="M238 188l-47 -262h-188l47 262h188v0z" />
    <glyph glyph-name="period" unicode="." horiz-adv-x="222" 
d="M238 188l-33 -188h-188l33 188h188v0z" />
    <glyph glyph-name="slash" unicode="/" horiz-adv-x="461" 
d="M574 678l-372 -678h-188l372 678h188v0z" />
    <glyph glyph-name="zero" unicode="0" horiz-adv-x="562" 
d="M238 187h150l54 301h-150l-54 -301v0zM504 732l-10 -57h169l-119 -675h-526l119 675h169l10 57h188v0z" />
    <glyph glyph-name="one" unicode="1" horiz-adv-x="278" 
d="M210 676q35 0 63.5 -13.5t47 -36.5t26.5 -53.5t2 -65.5l-89 -507h-188l33 188l46 263q3 15 -0.5 22.5t-10.5 10.5t-17 3.5t-21 0.5l33 188h75z" />
    <glyph glyph-name="two" unicode="2" horiz-adv-x="564" 
d="M588 244h-338l-11 -57h338l-32 -187h-526l72 412h338l3 19q5 29 -5 43t-40 14h-282l33 187h282q50 0 91 -19.5t68 -52.5t38.5 -77.5t2.5 -94.5z" />
    <glyph glyph-name="three" unicode="3" horiz-adv-x="614" 
d="M628 488l-11 -57h57l-32 -187h-57q-9 -50 -36 -94.5t-66 -77.5t-87 -52.5t-98 -19.5h-281l32 187h281q29 0 46 13.5t22 43.5h-226l29 169h226l14 75h-338l33 188h582l-33 -188h-57z" />
    <glyph glyph-name="four" unicode="4" horiz-adv-x="613" 
d="M671 413l-29 -169h-56q-8 -44 -20.5 -87.5t-36 -78.5t-61 -56.5t-94.5 -21.5h-66l32 187q18 0 28 3t16 9.5t8.5 17.5t5.5 27q-27 0 -63 -2.5t-73.5 -2.5t-73 4.5t-61.5 18.5t-39.5 40t-5.5 68l54 306h188l-47 -263h150l47 263h188l-47 -263h56z" />
    <glyph glyph-name="five" unicode="5" horiz-adv-x="615" 
d="M641 244q-9 -50 -36 -94.5t-66 -77.5t-87 -52.5t-98 -19.5h-282l33 188h282q21 0 33 5.5t19 15t10.5 23.5t6.5 31h-338l40 225h-56l33 188h582l-33 -188h-338l-10 -56h338z" />
    <glyph glyph-name="six" unicode="6" horiz-adv-x="618" 
d="M598 0h-281q-57 0 -98.5 21t-67 56.5t-34.5 83.5t1 102h-56l30 169h56l43 244h526l-33 -188h-338l-10 -56h151q56 0 90.5 -10.5t51 -34.5t18 -61.5t-7.5 -91.5zM443 188l13 75h-150l-5 -26q-3 -18 5 -28t21.5 -15t29 -6.5t28.5 -1.5q14 0 29 1t29 1z" />
    <glyph glyph-name="seven" unicode="7" horiz-adv-x="587" 
d="M601 676q39 0 61.5 -27t15.5 -66q-4 -25 -21 -48l-406 -535h-233l371 488h-97l-7 -37h-188l40 225h464z" />
    <glyph glyph-name="eight" unicode="8" horiz-adv-x="561" 
d="M291 488l-10 -56h150l10 56h-150v0zM248 244l-11 -57h150l11 57h-150v0zM503 732l-10 -56h169l-119 -676h-526l119 676h169l10 56h188v0z" />
    <glyph glyph-name="nine" unicode="9" horiz-adv-x="614" 
d="M670 413l-29 -169h-56l-43 -244h-188l43 244q-27 0 -63 -2.5t-73.5 -2.5t-73 4.5t-62 18.5t-39.5 40t-5 68l54 306h526l-47 -263h56zM426 413l14 75h-150l-14 -75h150z" />
    <glyph glyph-name="colon" unicode=":" horiz-adv-x="222" 
d="M238 188l-33 -188h-188l33 188h188v0zM323 673l-33 -188h-188l33 188h188v0zM323 673l-33 -188h-188l33 188h188v0zM323 673l-33 -188h-188l33 188h188v0z" />
    <glyph glyph-name="semicolon" unicode=";" horiz-adv-x="222" 
d="M238 188l-47 -262h-188l47 262h188v0zM323 673l-33 -188h-188l33 188h188v0z" />
    <glyph glyph-name="question" unicode="?" horiz-adv-x="549" 
d="M420 188l-33 -188h-188l33 188h188zM602 370q-5 -26 -18.5 -49t-33.5 -40t-44.5 -27t-50.5 -10h-213l29 169h151l14 75h-338l33 188h525z" />
    <glyph glyph-name="A" unicode="A" horiz-adv-x="677" 
d="M364 675l6 38h188l-6 -38h225l-33 -187h-57l-47 -263q-3 -15 0.5 -23t10.5 -11.5t17 -3.5h22l-32 -187h-75q-58 0 -87.5 22t-41 56.5t-8.5 78t11 87.5h-150l-14 -76q-6 -35 -25 -65.5t-46 -53.5t-60 -36t-67 -13h-76l32 187h22.5t18.5 3.5t14 11.5t9 23l47 263h-57
l33 187h226zM489 431l11 57h-150l-11 -57h150z" />
    <glyph glyph-name="B" unicode="B" horiz-adv-x="627" 
d="M634 169q-6 -35 -24.5 -65.5t-45.5 -53.5t-60 -36.5t-68 -13.5h-140l33 188h121l10 56h-150l-43 -244h-188l43 244h-56l33 188h56l10 56h-56l33 188h582zM489 413l14 75h-150l-14 -75h150z" />
    <glyph glyph-name="C" unicode="C" horiz-adv-x="625" 
d="M677 432h-188l10 57h-150l-24 -132q-9 -49 1.5 -80.5t34 -50t57 -27t70.5 -11t75 -1.5t71 1l-33 -188h-169q-74 0 -134 28t-100 76.5t-57 113.5t-4 139l20 113h-56l37 206h582z" />
    <glyph glyph-name="D" unicode="D" horiz-adv-x="619" 
d="M643 244q-9 -50 -36.5 -94.5t-66.5 -77.5t-86.5 -52.5t-97.5 -19.5h-61l33 188q19 0 39.5 -1.5t38.5 2.5t31 16t18 39l43 244h-150l-86 -488h-188l86 488h-56l33 188h582z" />
    <glyph glyph-name="E" unicode="E" 
d="M118 244h-56l32 187h56l11 57h-56l33 187h582l-33 -187h-338l-14 -75h225l-29 -169h-225q-12 -57 45 -57h282l-32 -187h-282q-50 0 -91 19.5t-68.5 52.5t-39 77.5t-2.5 94.5z" />
    <glyph glyph-name="F" unicode="F" horiz-adv-x="621" 
d="M119 244h-57l33 188h57l10 56h-57l33 188h582l-33 -188h-338l-14 -75h225l-29 -169h-225q-8 -44 -20.5 -88t-36 -78.5t-61 -56t-94.5 -21.5h-75l32 187q19 0 31 1.5t19 7t10.5 17t7.5 31.5z" />
    <glyph glyph-name="G" unicode="G" 
d="M673 413l-72 -413h-169q-74 0 -134 28t-100 76.5t-57 113.5t-4 139l20 113h-56l37 206h582l-40 -225h-188l7 37h-150l-24 -131q-6 -32 0.5 -61t23 -51.5t41.5 -37t56 -18.5l10 55h-56l29 169h244z" />
    <glyph glyph-name="H" unicode="H" horiz-adv-x="673" 
d="M690 188l-33 -188h-75q-35 0 -63.5 13.5t-47.5 36.5t-27 53.5t-2 65.5l14 75h-151l-43 -244h-187l43 244h-57l33 188h57l43 244h187l-43 -244h151l43 244h187l-33 -188l-47 -263q-3 -15 0.5 -22.5t11 -11t18 -3.5h21.5z" />
    <glyph glyph-name="I" unicode="I" horiz-adv-x="285" 
d="M384 676l-90 -507q-6 -35 -24.5 -65.5t-45.5 -53.5t-60 -36.5t-68 -13.5h-75l33 188q23 0 40 4t22 33l47 263l33 188h188z" />
    <glyph glyph-name="J" unicode="J" horiz-adv-x="363" 
d="M461 675l-67 -375q-12 -68 -47 -123.5t-85 -94.5t-111.5 -60.5t-127.5 -21.5l32 187q26 0 51 6.5t45.5 20.5t35 35.5t19.5 50.5l34 188h-131l33 187h319z" />
    <glyph glyph-name="K" unicode="K" horiz-adv-x="566" 
d="M666 676q-20 -22 -44 -50t-49.5 -60t-50 -66t-45 -68t-35 -66.5t-19.5 -60.5q-6 -38 6 -60.5t35.5 -35.5t54.5 -17t61 -4l-33 -188q-53 0 -102 9t-89.5 30t-70.5 55t-45 85l-31 -179h-188l119 676h188l-40 -225q29 60 69.5 116t83.5 109h225z" />
    <glyph glyph-name="L" unicode="L" 
d="M630 169q-6 -35 -24.5 -65.5t-45.5 -53.5t-60 -36.5t-68 -13.5h-413l33 188h56l86 488h188l-86 -488h112q15 0 23.5 4.5t13 12t7 17.5t4.5 22h188z" />
    <glyph glyph-name="M" unicode="M" horiz-adv-x="791" 
d="M890 676l-33 -188h-56l-47 -263q-3 -15 0.5 -22.5t10.5 -11t17.5 -3.5h21.5l-33 -188h-56q-62 0 -96 18.5t-48 51.5t-12 77.5t11 96.5l43 244h-37l-43 -244h-188l43 244h-38l-43 -244q-11 -60 -26 -105.5t-42.5 -76.5t-70.5 -46.5t-110 -15.5h-38l33 188h21.5t18.5 3.5
t14 11t9 22.5l47 263h-57l33 188h282l6 37h188l-6 -37h281z" />
    <glyph glyph-name="N" unicode="N" horiz-adv-x="636" 
d="M652 188l-33 -188h-75q-35 0 -63.5 13.5t-47.5 36.5t-27 53.5t-2 65.5l14 75l43 244q-66 -7 -103.5 -25t-58.5 -48t-30.5 -73t-19.5 -98l-43 -244h-188l119 676h188l-7 -36q49 20 94 28t94 8h176l-80 -451q-3 -15 0.5 -22.5t10.5 -10.5t17.5 -3.5t21.5 -0.5z" />
    <glyph glyph-name="O" unicode="O" horiz-adv-x="570" 
d="M394 188l53 300h-150l-53 -300h150v0zM549 0h-526l119 676h526l-119 -676v0z" />
    <glyph glyph-name="P" unicode="P" horiz-adv-x="621" 
d="M673 413q-9 -49 -30 -80.5t-51 -50.5t-66.5 -27t-74.5 -10.5t-75.5 -1.5t-69.5 1l-43 -244h-188l43 244h-56l33 188h56l10 56h-56l33 188h582zM485 413l14 75h-150l-14 -75h150z" />
    <glyph glyph-name="Q" unicode="Q" horiz-adv-x="568" 
d="M392 188l53 300h-150l-53 -300h150v0zM546 0h-168l-10 -56h-188l10 56h-169l119 676h525l-119 -676v0z" />
    <glyph glyph-name="R" unicode="R" horiz-adv-x="617" 
d="M628 169l-29 -169q-59 0 -109.5 15.5t-87 46t-56.5 76t-20 106.5h-22l-43 -244h-188l43 244h-56l33 188h56l10 57h-56l33 187h582l-47 -263q-5 -31 -21 -59t-39 -50.5t-52 -37.5t-60 -19q4 -23 16.5 -38t30 -24t39 -12.5t43.5 -3.5zM483 413l14 76h-150l-14 -76h150z" />
    <glyph glyph-name="S" unicode="S" horiz-adv-x="561" 
d="M63 244l33 188q9 50 36 94.5t66 77.5t87 52.5t98 19.5h282l-33 -187h-188q-32 0 -59 2.5t-48 -2t-35.5 -21t-21.5 -55.5h338l-29 -169q-9 -50 -36 -94.5t-66 -77.5t-87 -52.5t-98 -19.5h-282l33 188h244q17 0 33.5 -0.5t31 4t25 16.5t14.5 36h-338z" />
    <glyph glyph-name="T" unicode="T" horiz-adv-x="561" 
d="M414 226q-3 -15 0.5 -23t10.5 -11.5t17 -3.5h22l-33 -188h-75q-35 0 -63.5 13.5t-47.5 36.5t-27 53.5t-2 65.5l14 75l43 244h-169l33 188h525l-33 -188h-168z" />
    <glyph glyph-name="U" unicode="U" horiz-adv-x="622" 
d="M601 0h-169q-74 0 -134 28t-100 76.5t-57 113.5t-4 139l20 112h-56l37 207h244l-33 -188q-6 -30 -12 -63t-9 -64.5t-0.5 -60.5t15.5 -52.5t37.5 -39t65.5 -19.5l86 487h188z" />
    <glyph glyph-name="V" unicode="V" horiz-adv-x="634" 
d="M735 676l-33 -188q-12 0 -22 -0.5t-18.5 -3.5t-14 -11t-8.5 -23l-47 -263l-32 -187h-188l-248 676h193l117 -322q6 32 11.5 68.5t15 72.5t24 68.5t38 57.5t57 40t80.5 15h75z" />
    <glyph glyph-name="W" unicode="W" horiz-adv-x="789" 
d="M890 676l-33 -188h-21.5t-18.5 -3.5t-14 -11t-9 -22.5l-46 -263h56l-33 -188h-282l-7 -38h-188l7 38h-281l33 188h56l46 263q3 15 -0.5 22.5t-10.5 11t-17 3.5h-21l33 188h56q62 0 96 -18.5t48 -51.5t12 -77.5t-11 -96.5l-43 -244h37l43 244h188l-43 -244h38l43 244
q10 60 25.5 105.5t43 76t71 46.5t109.5 16h38z" />
    <glyph glyph-name="X" unicode="X" horiz-adv-x="592" 
d="M694 676l-33 -188q-37 0 -59.5 -1t-37 -6t-24.5 -14t-21.5 -26t-27 -42t-41.5 -61l125 -338h-188l-61 167q-25 -35 -46.5 -65.5t-45.5 -53t-54.5 -35.5t-73.5 -13h-86l33 188q37 0 59.5 0.5t36.5 4.5t23.5 13t20.5 26t27 42.5t43 63.5l-124 338h188l61 -165q24 33 45 63
t46 52.5t55.5 36t73.5 13.5h86z" />
    <glyph glyph-name="Y" unicode="Y" horiz-adv-x="617" 
d="M672 413l-29 -169h-56q-9 -50 -36.5 -94.5t-66.5 -77.5t-86.5 -52.5t-97.5 -19.5h-169l33 188h169q57 0 66 56q-27 0 -63 -2.5t-73.5 -2.5t-73 5t-62 19t-39.5 39.5t-5 67.5l54 306h188l-47 -263h150l47 263h188l-47 -263h56z" />
    <glyph glyph-name="Z" unicode="Z" horiz-adv-x="634" 
d="M647 169q-6 -35 -24.5 -65.5t-45.5 -53.5t-60 -36.5t-68 -13.5h-432l378 488h-67q-15 0 -23.5 -4.5t-13 -12.5t-7 -18.5t-4.5 -21.5h-188l14 76q6 35 25 65.5t46 53.5t60 36.5t68 13.5h432l-379 -489h67q15 0 23.5 4.5t13 12.5t7 18.5t4.5 21.5h188z" />
    <glyph glyph-name="a" unicode="a" horiz-adv-x="677" 
d="M364 675l6 38h188l-6 -38h225l-33 -187h-57l-47 -263q-3 -15 0.5 -23t10.5 -11.5t17 -3.5h22l-32 -187h-75q-58 0 -87.5 22t-41 56.5t-8.5 78t11 87.5h-150l-14 -76q-6 -35 -25 -65.5t-46 -53.5t-60 -36t-67 -13h-76l32 187h22.5t18.5 3.5t14 11.5t9 23l47 263h-57
l33 187h226zM489 431l11 57h-150l-11 -57h150z" />
    <glyph glyph-name="b" unicode="b" horiz-adv-x="627" 
d="M634 169q-6 -35 -24.5 -65.5t-45.5 -53.5t-60 -36.5t-68 -13.5h-140l33 188h121l10 56h-150l-43 -244h-188l43 244h-56l33 188h56l10 56h-56l33 188h582zM489 413l14 75h-150l-14 -75h150z" />
    <glyph glyph-name="c" unicode="c" horiz-adv-x="625" 
d="M677 432h-188l10 57h-150l-24 -132q-9 -49 1.5 -80.5t34 -50t57 -27t70.5 -11t75 -1.5t71 1l-33 -188h-169q-74 0 -134 28t-100 76.5t-57 113.5t-4 139l20 113h-56l37 206h582z" />
    <glyph glyph-name="d" unicode="d" horiz-adv-x="619" 
d="M643 244q-9 -50 -36.5 -94.5t-66.5 -77.5t-86.5 -52.5t-97.5 -19.5h-61l33 188q19 0 39.5 -1.5t38.5 2.5t31 16t18 39l43 244h-150l-86 -488h-188l86 488h-56l33 188h582z" />
    <glyph glyph-name="e" unicode="e" 
d="M118 244h-56l32 187h56l11 57h-56l33 187h582l-33 -187h-338l-14 -75h225l-29 -169h-225q-12 -57 45 -57h282l-32 -187h-282q-50 0 -91 19.5t-68.5 52.5t-39 77.5t-2.5 94.5z" />
    <glyph glyph-name="f" unicode="f" horiz-adv-x="621" 
d="M119 244h-57l33 188h57l10 56h-57l33 188h582l-33 -188h-338l-14 -75h225l-29 -169h-225q-8 -44 -20.5 -88t-36 -78.5t-61 -56t-94.5 -21.5h-75l32 187q19 0 31 1.5t19 7t10.5 17t7.5 31.5z" />
    <glyph glyph-name="g" unicode="g" 
d="M673 413l-72 -413h-169q-74 0 -134 28t-100 76.5t-57 113.5t-4 139l20 113h-56l37 206h582l-40 -225h-188l7 37h-150l-24 -131q-6 -32 0.5 -61t23 -51.5t41.5 -37t56 -18.5l10 55h-56l29 169h244z" />
    <glyph glyph-name="h" unicode="h" horiz-adv-x="673" 
d="M690 188l-33 -188h-75q-35 0 -63.5 13.5t-47.5 36.5t-27 53.5t-2 65.5l14 75h-151l-43 -244h-187l43 244h-57l33 188h57l43 244h187l-43 -244h151l43 244h187l-33 -188l-47 -263q-3 -15 0.5 -22.5t11 -11t18 -3.5h21.5z" />
    <glyph glyph-name="i" unicode="i" horiz-adv-x="285" 
d="M384 676l-90 -507q-6 -35 -24.5 -65.5t-45.5 -53.5t-60 -36.5t-68 -13.5h-75l33 188q23 0 40 4t22 33l47 263l33 188h188z" />
    <glyph glyph-name="j" unicode="j" horiz-adv-x="363" 
d="M461 675l-67 -375q-12 -68 -47 -123.5t-85 -94.5t-111.5 -60.5t-127.5 -21.5l32 187q26 0 51 6.5t45.5 20.5t35 35.5t19.5 50.5l34 188h-131l33 187h319z" />
    <glyph glyph-name="k" unicode="k" horiz-adv-x="566" 
d="M666 676q-20 -22 -44 -50t-49.5 -60t-50 -66t-45 -68t-35 -66.5t-19.5 -60.5q-6 -38 6 -60.5t35.5 -35.5t54.5 -17t61 -4l-33 -188q-53 0 -102 9t-89.5 30t-70.5 55t-45 85l-31 -179h-188l119 676h188l-40 -225q29 60 69.5 116t83.5 109h225z" />
    <glyph glyph-name="l" unicode="l" 
d="M630 169q-6 -35 -24.5 -65.5t-45.5 -53.5t-60 -36.5t-68 -13.5h-413l33 188h56l86 488h188l-86 -488h112q15 0 23.5 4.5t13 12t7 17.5t4.5 22h188z" />
    <glyph glyph-name="m" unicode="m" horiz-adv-x="791" 
d="M890 676l-33 -188h-56l-47 -263q-3 -15 0.5 -22.5t10.5 -11t17.5 -3.5h21.5l-33 -188h-56q-62 0 -96 18.5t-48 51.5t-12 77.5t11 96.5l43 244h-37l-43 -244h-188l43 244h-38l-43 -244q-11 -60 -26 -105.5t-42.5 -76.5t-70.5 -46.5t-110 -15.5h-38l33 188h21.5t18.5 3.5
t14 11t9 22.5l47 263h-57l33 188h282l6 37h188l-6 -37h281z" />
    <glyph glyph-name="n" unicode="n" horiz-adv-x="636" 
d="M652 188l-33 -188h-75q-35 0 -63.5 13.5t-47.5 36.5t-27 53.5t-2 65.5l14 75l43 244q-66 -7 -103.5 -25t-58.5 -48t-30.5 -73t-19.5 -98l-43 -244h-188l119 676h188l-7 -36q49 20 94 28t94 8h176l-80 -451q-3 -15 0.5 -22.5t10.5 -10.5t17.5 -3.5t21.5 -0.5z" />
    <glyph glyph-name="o" unicode="o" horiz-adv-x="570" 
d="M394 188l53 300h-150l-53 -300h150v0zM549 0h-526l119 676h526l-119 -676v0z" />
    <glyph glyph-name="p" unicode="p" horiz-adv-x="621" 
d="M673 413q-9 -49 -30 -80.5t-51 -50.5t-66.5 -27t-74.5 -10.5t-75.5 -1.5t-69.5 1l-43 -244h-188l43 244h-56l33 188h56l10 56h-56l33 188h582zM485 413l14 75h-150l-14 -75h150z" />
    <glyph glyph-name="q" unicode="q" horiz-adv-x="568" 
d="M392 188l53 300h-150l-53 -300h150v0zM546 0h-168l-10 -56h-188l10 56h-169l119 676h525l-119 -676v0z" />
    <glyph glyph-name="r" unicode="r" horiz-adv-x="617" 
d="M628 169l-29 -169q-59 0 -109.5 15.5t-87 46t-56.5 76t-20 106.5h-22l-43 -244h-188l43 244h-56l33 188h56l10 57h-56l33 187h582l-47 -263q-5 -31 -21 -59t-39 -50.5t-52 -37.5t-60 -19q4 -23 16.5 -38t30 -24t39 -12.5t43.5 -3.5zM483 413l14 76h-150l-14 -76h150z" />
    <glyph glyph-name="s" unicode="s" horiz-adv-x="561" 
d="M63 244l33 188q9 50 36 94.5t66 77.5t87 52.5t98 19.5h282l-33 -187h-188q-32 0 -59 2.5t-48 -2t-35.5 -21t-21.5 -55.5h338l-29 -169q-9 -50 -36 -94.5t-66 -77.5t-87 -52.5t-98 -19.5h-282l33 188h244q17 0 33.5 -0.5t31 4t25 16.5t14.5 36h-338z" />
    <glyph glyph-name="t" unicode="t" horiz-adv-x="561" 
d="M414 226q-3 -15 0.5 -23t10.5 -11.5t17 -3.5h22l-33 -188h-75q-35 0 -63.5 13.5t-47.5 36.5t-27 53.5t-2 65.5l14 75l43 244h-169l33 188h525l-33 -188h-168z" />
    <glyph glyph-name="u" unicode="u" horiz-adv-x="622" 
d="M601 0h-169q-74 0 -134 28t-100 76.5t-57 113.5t-4 139l20 112h-56l37 207h244l-33 -188q-6 -30 -12 -63t-9 -64.5t-0.5 -60.5t15.5 -52.5t37.5 -39t65.5 -19.5l86 487h188z" />
    <glyph glyph-name="v" unicode="v" horiz-adv-x="634" 
d="M735 676l-33 -188q-12 0 -22 -0.5t-18.5 -3.5t-14 -11t-8.5 -23l-47 -263l-32 -187h-188l-248 676h193l117 -322q6 32 11.5 68.5t15 72.5t24 68.5t38 57.5t57 40t80.5 15h75z" />
    <glyph glyph-name="w" unicode="w" horiz-adv-x="789" 
d="M890 676l-33 -188h-21.5t-18.5 -3.5t-14 -11t-9 -22.5l-46 -263h56l-33 -188h-282l-7 -38h-188l7 38h-281l33 188h56l46 263q3 15 -0.5 22.5t-10.5 11t-17 3.5h-21l33 188h56q62 0 96 -18.5t48 -51.5t12 -77.5t-11 -96.5l-43 -244h37l43 244h188l-43 -244h38l43 244
q10 60 25.5 105.5t43 76t71 46.5t109.5 16h38z" />
    <glyph glyph-name="x" unicode="x" horiz-adv-x="592" 
d="M694 676l-33 -188q-37 0 -59.5 -1t-37 -6t-24.5 -14t-21.5 -26t-27 -42t-41.5 -61l125 -338h-188l-61 167q-25 -35 -46.5 -65.5t-45.5 -53t-54.5 -35.5t-73.5 -13h-86l33 188q37 0 59.5 0.5t36.5 4.5t23.5 13t20.5 26t27 42.5t43 63.5l-124 338h188l61 -165q24 33 45 63
t46 52.5t55.5 36t73.5 13.5h86z" />
    <glyph glyph-name="y" unicode="y" horiz-adv-x="617" 
d="M672 413l-29 -169h-56q-9 -50 -36.5 -94.5t-66.5 -77.5t-86.5 -52.5t-97.5 -19.5h-169l33 188h169q57 0 66 56q-27 0 -63 -2.5t-73.5 -2.5t-73 5t-62 19t-39.5 39.5t-5 67.5l54 306h188l-47 -263h150l47 263h188l-47 -263h56z" />
    <glyph glyph-name="z" unicode="z" horiz-adv-x="634" 
d="M647 169q-6 -35 -24.5 -65.5t-45.5 -53.5t-60 -36.5t-68 -13.5h-432l378 488h-67q-15 0 -23.5 -4.5t-13 -12.5t-7 -18.5t-4.5 -21.5h-188l14 76q6 35 25 65.5t46 53.5t60 36.5t68 13.5h432l-379 -489h67q15 0 23.5 4.5t13 12.5t7 18.5t4.5 21.5h188z" />
  </font>
</defs>
</svg>
